HIERARCHY
ROOT Hips
{
	OFFSET 0.000000 0.000000 0.000000
	CHANNELS 6 Xposition Yposition Zposition Zrotation Yrotation Xrotation 
	JOINT LHipJoint
	{
		OFFSET 0.000000 0.000000 0.000000
		CHANNELS 3 Zrotation Yrotation Xrotation
		JOINT LeftUpLeg
		{
			OFFSET 1.363060 -1.794630 0.839290
			CHANNELS 3 Zrotation Yrotation Xrotation
			JOINT LeftLeg
			{
				OFFSET 2.448110 -6.726130 0.000000
				CHANNELS 3 Zrotation Yrotation Xrotation
				JOINT LeftFoot
				{
					OFFSET 2.562200 -7.039590 0.000000
					CHANNELS 3 Zrotation Yrotation Xrotation
					JOINT LeftToeBase
					{
						OFFSET 0.157640 -0.433110 2.322550
						CHANNELS 3 Zrotation Yrotation Xrotation
						End Site
						{
							OFFSET 0.000000 0.000000 0.000000
						}
					}
				}
			}
		}
	}
	JOINT RHipJoint
	{
		OFFSET 0.000000 0.000000 0.000000
		CHANNELS 3 Zrotation Yrotation Xrotation
		JOINT RightUpLeg
		{
			OFFSET -1.305520 -1.794630 0.839290
			CHANNELS 3 Zrotation Yrotation Xrotation
			JOINT RightLeg
			{
				OFFSET -2.542530 -6.985550 0.000000
				CHANNELS 3 Zrotation Yrotation Xrotation
				JOINT RightFoot
				{
					OFFSET -2.568260 -7.056230 0.000000
					CHANNELS 3 Zrotation Yrotation Xrotation
					JOINT RightToeBase
					{
						OFFSET -0.164730 -0.452590 2.363150
						CHANNELS 3 Zrotation Yrotation Xrotation
						End Site
						{
							OFFSET 0.000000 0.000000 0.000000
						}
					}
				}
			}
		}
	}
	JOINT LowerBack
	{
		OFFSET 0.000000 0.000000 0.000000
		CHANNELS 3 Zrotation Yrotation Xrotation
		JOINT Spine
		{
			OFFSET 0.028270 2.035590 -0.193380
			CHANNELS 3 Zrotation Yrotation Xrotation
			JOINT Spine1
			{
				OFFSET 0.056720 2.048850 -0.042750
				CHANNELS 3 Zrotation Yrotation Xrotation
				JOINT Neck
				{
					OFFSET 0.000000 0.000000 0.000000
					CHANNELS 3 Zrotation Yrotation Xrotation
					JOINT Neck1
					{
						OFFSET -0.054170 1.746240 0.172020
						CHANNELS 3 Zrotation Yrotation Xrotation
						JOINT Head
						{
							OFFSET 0.104070 1.761360 -0.123970
							CHANNELS 3 Zrotation Yrotation Xrotation
							End Site
							{
								OFFSET 0.000000 0.000000 0.000000
							}
						}
					}
				}
				JOINT LeftShoulder
				{
					OFFSET 0.000000 0.000000 0.000000
					CHANNELS 3 Zrotation Yrotation Xrotation
					JOINT LeftArm
					{
						OFFSET 3.362410 1.200890 -0.311210
						CHANNELS 3 Zrotation Yrotation Xrotation
						JOINT LeftForeArm
						{
							OFFSET 4.983000 -0.000000 -0.000000
							CHANNELS 3 Zrotation Yrotation Xrotation
							JOINT LeftHand
							{
								OFFSET 3.483560 -0.000000 -0.000000
								CHANNELS 3 Zrotation Yrotation Xrotation
								JOINT LeftFingerBase
								{
									OFFSET 0.000000 0.000000 0.000000
									CHANNELS 3 Zrotation Yrotation Xrotation
									JOINT LeftHandIndex1
									{
										OFFSET 0.715260 -0.000000 -0.000000
										CHANNELS 3 Zrotation Yrotation Xrotation
										End Site
										{
											OFFSET 0.000000 0.000000 0.000000
										}
									}
								}
								JOINT LThumb
								{
									OFFSET 0.000000 0.000000 0.000000
									CHANNELS 3 Zrotation Yrotation Xrotation
									End Site
									{
										OFFSET 0.000000 0.000000 0.000000
									}
								}
							}
						}
					}
				}
				JOINT RightShoulder
				{
					OFFSET 0.000000 0.000000 0.000000
					CHANNELS 3 Zrotation Yrotation Xrotation
					JOINT RightArm
					{
						OFFSET -3.136600 1.374050 -0.404650
						CHANNELS 3 Zrotation Yrotation Xrotation
						JOINT RightForeArm
						{
							OFFSET -5.241900 -0.000000 -0.000000
							CHANNELS 3 Zrotation Yrotation Xrotation
							JOINT RightHand
							{
								OFFSET -3.444170 -0.000000 -0.000000
								CHANNELS 3 Zrotation Yrotation Xrotation
								JOINT RightFingerBase
								{
									OFFSET 0.000000 0.000000 0.000000
									CHANNELS 3 Zrotation Yrotation Xrotation
									JOINT RightHandIndex1
									{
										OFFSET -0.622530 -0.000000 -0.000000
										CHANNELS 3 Zrotation Yrotation Xrotation
										End Site
										{
											OFFSET 0.000000 0.000000 0.000000
										}
									}
								}
								JOINT RThumb
								{
									OFFSET 0.000000 0.000000 0.000000
									CHANNELS 3 Zrotation Yrotation Xrotation
									End Site
									{
										OFFSET 0.000000 0.000000 0.000000
									}
								}
							}
						}
					}
				}
			}
		}
	}
}
MOTION
Frames: 12
Frame Time: 0.008333
-15.287237 15.227027 -1.325125 173.895563 -84.528146 -170.145394 -2.881938 13.968817 4.581465 -1.027655 -19.069096 -54.116854 4.788459 6.944599 39.073781 -1.531599 4.844759 0.989430 -3.452373 15.175180 -0.571561 2.240880 -13.659421 5.399032 2.149982 23.041391 -47.787544 -4.406499 -10.467668 62.237892 -2.849592 -9.227598 -3.910597 -5.189766 -2.886467 -21.390271 0.278488 0.059162 -0.507341 1.137915 -2.211021 -3.051409 -1.445492 -1.884906 5.840346 -4.038124 -1.149443 -9.085843 1.234504 -1.261355 7.891901 9.298440 -9.572258 10.181642 7.211025 -2.679252 3.460848 -87.165328 -30.262524 32.246169 166.216009 -57.815070 -161.071553 -21.171977 27.601327 -9.145623 -0.000001 -0.000002 -0.000000 0.000000 0.000000 0.000000 -0.000000 0.000000 -0.000000 -8.112595 2.250402 2.999719 75.274532 20.965560 13.900779 -60.981644 83.121751 -37.310253 9.173699 8.448895 2.029151 0.000000 0.000002 -0.000000 0.000000 0.000000 -0.000000 0.000000 0.000000 -0.000000 
-15.181532 15.167868 -1.477992 173.465241 -85.083805 -170.009115 -2.602606 13.747729 4.473725 -0.460100 -19.511869 -54.743037 4.700278 8.862155 41.491730 -0.248716 5.301381 0.216102 -3.207696 13.549578 -1.605013 2.361305 -13.628338 5.418505 2.040585 23.481675 -47.819042 -4.662919 -11.740118 62.398084 -4.228977 -10.029852 -4.467010 -5.497640 -2.959721 -22.496949 -0.123959 0.044157 -0.353487 1.281591 -2.124066 -2.944701 -1.238914 -1.785536 6.014084 -4.031041 -1.318954 -8.980848 1.338081 -1.373389 7.811172 8.850196 -9.627752 9.810913 7.284076 -2.586241 3.624348 -87.244840 -30.630037 32.094179 166.026897 -58.764950 -162.197318 -19.037599 28.272272 -8.827342 -0.000001 -0.000002 -0.000000 -0.000000 -0.000000 0.000000 0.000000 0.000000 0.000000 -8.144918 2.452935 3.014211 74.777082 20.835680 12.125180 -38.527646 82.057332 -17.929847 6.758763 8.077164 1.730310 0.000000 0.000002 -0.000000 -0.000000 0.000000 -0.000000 0.000000 -0.000000 0.000000 
-15.077628 15.106006 -1.623619 170.943986 -85.657791 -167.851658 -2.591945 13.641214 4.303595 -0.166859 -19.873347 -55.296636 5.151483 10.784982 43.956720 -0.000981 5.276127 -0.319098 -3.508203 13.717365 -3.657446 2.224149 -13.820511 5.436857 2.408478 23.763575 -47.800747 -5.320601 -12.750312 62.593874 -5.674563 -10.477010 -4.804041 -5.048827 -3.983586 -22.884818 -0.593344 0.106146 -0.173922 1.377954 -1.935583 -2.806728 -1.120697 -1.551440 6.090167 -3.959234 -1.441988 -8.756580 1.434536 -1.500262 7.768318 8.752688 -9.878782 9.317190 7.477710 -2.908096 3.711338 -87.357942 -30.886521 31.994010 165.586743 -59.780440 -161.910669 -17.717001 27.774340 -8.324444 -0.000001 -0.000002 -0.000000 -0.000000 0.000000 0.000000 0.000000 0.000000 -0.000000 -8.103330 2.163445 3.346736 74.321221 20.969034 10.522647 -22.358946 79.826695 -4.652507 5.533271 7.135532 1.442182 0.000000 0.000002 -0.000000 -0.000000 -0.000000 0.000000 0.000000 0.000000 -0.000000 
-14.964279 15.047297 -1.757718 170.384182 -86.018938 -167.705270 -2.656627 13.312747 4.130434 0.697365 -20.027317 -55.766704 5.594179 12.999709 46.298019 0.480243 5.395375 -0.784094 -3.067062 12.155520 -3.316139 2.153850 -13.636614 5.172779 3.284168 23.564878 -47.344021 -6.048626 -13.384384 62.749428 -6.653859 -10.845983 -5.138386 -4.442367 -5.154664 -23.061616 -0.718096 0.092544 0.229055 1.391651 -1.751800 -2.744163 -1.058321 -1.365913 6.462156 -3.935027 -1.529545 -8.914229 1.528632 -1.586962 7.678276 8.848555 -10.066167 8.715004 7.526785 -2.725820 3.744322 -87.460217 -31.440931 31.970565 165.180606 -60.824883 -162.249368 -15.482490 27.584012 -7.704405 -0.000001 -0.000002 -0.000000 0.000000 -0.000000 0.000000 -0.000000 0.000000 0.000000 -8.070180 2.076924 3.547638 73.783111 21.473790 8.436370 -10.082100 77.130641 5.290887 3.882669 6.829542 1.256729 0.000000 0.000002 -0.000000 0.000000 -0.000000 0.000000 0.000000 0.000000 0.000000 
-14.849399 14.994054 -1.890931 169.351485 -86.363020 -167.130894 -2.884929 12.940682 3.887600 1.044348 -19.693966 -56.093818 6.455471 14.660169 48.652805 0.335603 5.260480 -1.066251 -3.100361 11.916938 -4.165784 2.173899 -13.387677 4.875394 4.114842 23.174068 -46.818175 -6.557954 -13.809390 62.882851 -7.540117 -11.422715 -5.490089 -4.158939 -5.797184 -23.344307 -0.855087 0.059626 0.691521 1.406662 -1.606404 -2.679851 -0.927903 -1.271649 6.969342 -3.989041 -1.544686 -9.218782 1.601150 -1.612266 7.572859 9.307135 -10.303258 8.255670 7.381009 -2.317265 3.847355 -87.521286 -32.206893 31.526733 165.678626 -62.023578 -164.773900 -13.159781 28.475071 -7.376872 -0.000001 -0.000002 -0.000000 0.000000 0.000000 -0.000000 -0.000000 0.000000 -0.000000 -8.029615 2.095651 3.678280 73.155505 22.127561 6.232815 -1.829899 73.997353 11.407941 1.995878 6.563245 1.069943 0.000000 0.000002 -0.000000 -0.000000 0.000000 0.000000 0.000000 -0.000000 0.000000 
-14.740721 14.953438 -2.019084 168.937979 -86.624798 -167.057034 -2.782193 12.808174 3.667548 1.209392 -19.768194 -56.318286 6.819585 16.056570 51.542827 0.106745 4.542432 -1.212421 -2.583815 9.734062 -4.769826 2.241446 -13.506789 4.896440 4.951395 23.330120 -46.890678 -7.554908 -13.993366 63.091186 -8.090771 -11.844769 -5.571637 -3.950661 -6.231779 -23.487644 -1.123187 0.014044 0.969451 1.529386 -1.521025 -2.559244 -0.871894 -1.147258 7.952440 -3.859916 -1.478866 -9.933154 1.469807 -1.599630 7.268831 10.031326 -10.651519 7.989611 7.490030 -1.852738 3.828859 -87.834030 -33.308014 30.926277 165.185097 -63.780316 -165.180890 -12.534378 28.021184 -7.094453 -0.000001 -0.000002 -0.000000 -0.000000 -0.000000 -0.000000 0.000000 -0.000000 -0.000000 -7.802014 1.763716 3.912708 72.510386 23.093788 4.518820 3.376873 70.617370 15.111732 -0.728914 6.916434 0.916376 0.000000 0.000002 -0.000000 -0.000000 -0.000000 0.000000 0.000000 0.000000 -0.000000 
-14.631997 14.907598 -2.143303 173.972963 -86.725574 -172.389767 -2.287019 12.705879 3.530257 1.394702 -19.799515 -56.590802 7.072133 17.450311 54.464777 -0.392145 4.026171 -1.294694 -2.468347 8.671613 -6.843326 2.432548 -13.562260 4.830811 6.414389 23.330119 -46.869503 -8.769512 -13.672049 63.391175 -8.569566 -12.134503 -5.602048 -4.142304 -5.899757 -23.490834 -1.062460 0.007022 1.236797 1.623710 -1.389134 -2.462573 -0.627980 -1.139986 8.666536 -3.956582 -1.428222 -10.404902 1.345581 -1.548216 6.950521 10.296927 -10.786425 8.196671 7.485975 -1.300398 3.838603 -88.257283 -34.167039 30.007546 165.012228 -65.675474 -166.408041 -10.599602 27.829309 -6.564697 -0.000001 -0.000002 -0.000000 0.000000 0.000000 0.000000 0.000000 0.000000 0.000000 -7.920797 1.739518 4.160207 71.939214 23.858886 2.870509 6.927422 67.016654 17.081794 -2.220224 7.370474 0.857219 0.000000 0.000002 -0.000000 0.000000 -0.000000 0.000000 -0.000000 -0.000000 0.000000 
-14.524009 14.873033 -2.255976 172.277460 -86.705464 -170.943971 -2.544121 12.441102 3.419199 1.734657 -19.453510 -56.944591 7.149716 18.434844 57.323489 -0.315794 3.745973 -1.186665 -2.066293 7.101809 -7.543073 2.285269 -13.435490 4.687448 7.494690 23.330877 -46.760018 -9.913888 -13.747772 63.399012 -9.044861 -12.309947 -5.514036 -4.286315 -5.517219 -23.232293 -1.211258 -0.014726 1.411144 1.635818 -1.158089 -2.320515 -0.907973 -0.864572 8.982219 -3.621435 -1.323270 -10.456466 1.165762 -1.553393 6.650476 10.316784 -10.919019 7.919582 7.771739 -1.205584 3.834763 -88.532787 -34.661877 28.733103 165.427421 -67.695117 -169.364237 -9.867413 28.620941 -6.579040 -0.000001 -0.000002 -0.000000 -0.000000 0.000000 0.000000 -0.000000 0.000000 -0.000000 -7.415983 1.747895 4.461597 71.244487 24.274417 1.015698 9.669874 63.220808 17.375353 -4.102799 6.121133 0.575711 0.000000 0.000002 -0.000000 -0.000000 0.000000 -0.000000 0.000000 0.000000 -0.000000 
-14.414955 14.840135 -2.356952 171.688640 -86.585467 -170.637497 -2.966766 12.192417 3.344436 1.935791 -18.819617 -57.331585 6.976392 18.818115 60.240581 0.081309 3.861038 -1.033230 -1.700913 5.646275 -8.666579 2.050817 -13.213858 4.440240 8.779031 23.239727 -46.409082 -10.714040 -13.637724 63.331019 -9.340837 -12.802505 -5.476335 -4.720936 -4.857894 -23.433478 -1.110154 -0.067786 1.638476 1.565906 -0.971081 -2.183207 -1.101022 -0.706371 9.134822 -3.503429 -1.146180 -10.368707 0.978768 -1.456501 6.337699 10.244765 -10.815021 7.932224 7.784640 -0.887237 3.969639 -88.810600 -35.138625 27.734216 165.301915 -69.681862 -170.511465 -7.784298 28.190928 -5.957156 -0.000001 -0.000002 -0.000000 0.000000 -0.000000 0.000000 -0.000000 -0.000000 0.000000 -7.117486 2.186165 4.591960 70.507226 24.438937 -0.633963 11.232096 59.353029 17.571075 -5.752188 5.789676 0.432117 0.000000 0.000002 -0.000000 0.000000 -0.000000 0.000000 0.000000 0.000000 0.000000 
-14.309159 14.819910 -2.451186 168.073349 -86.382283 -167.055013 -3.200020 11.916257 3.270988 1.699422 -18.347889 -57.533012 6.869193 19.376519 63.112273 0.495653 3.888816 -1.511002 -1.430589 4.530474 -10.234320 1.945492 -13.101287 4.427044 9.141279 23.446214 -46.775666 -10.957943 -13.618241 63.320405 -9.785410 -13.314398 -5.302809 -5.096565 -4.051258 -23.165045 -1.263694 -0.167927 1.655297 1.591064 -0.822748 -2.134126 -1.177539 -0.615060 9.130472 -3.390544 -0.957818 -10.297052 0.828945 -1.358303 6.209335 10.140996 -10.631912 7.506815 7.789197 -0.664903 4.053319 -89.177147 -35.141718 26.712248 164.874124 -71.812805 -171.371188 -6.044709 27.694494 -5.425601 -0.000001 -0.000002 -0.000000 -0.000000 -0.000000 0.000000 -0.000000 0.000000 0.000000 -6.910140 2.470144 4.864696 70.003077 24.107481 -2.390433 12.681721 57.403376 17.773739 -6.371573 5.804395 0.392518 0.000000 0.000002 -0.000000 -0.000000 -0.000000 0.000000 0.000000 0.000000 -0.000000 
-14.203874 14.797748 -2.551171 165.772270 -86.238562 -164.811564 -3.176732 11.687381 3.138388 1.047724 -17.877639 -57.507514 6.194772 19.506109 65.928250 1.391365 4.512049 -2.007954 -0.949202 2.910728 -11.409117 2.004997 -13.112036 4.489205 9.541782 23.621284 -47.245353 -11.276847 -13.406895 63.387194 -10.269025 -13.737820 -5.109729 -5.613403 -2.748657 -22.494694 -1.458568 -0.245627 1.707801 1.669575 -0.645668 -2.104389 -0.807044 -0.644780 9.140256 -3.640842 -0.760303 -10.262232 0.673749 -1.203825 6.111282 10.221710 -10.731814 7.938215 7.487463 -0.445279 4.210871 -89.634005 -35.234600 25.720326 164.430081 -73.992773 -172.579191 -4.952534 27.691060 -5.162455 -0.000001 -0.000002 -0.000000 -0.000000 -0.000000 0.000000 -0.000000 0.000000 0.000000 -7.141395 2.775628 4.870999 69.591069 23.457118 -3.543743 13.065186 55.763688 18.193053 -7.120408 6.643593 0.408336 0.000000 0.000002 -0.000000 0.000000 -0.000000 -0.000000 -0.000000 -0.000000 0.000000 
-14.100360 14.773243 -2.637042 167.117895 -85.951101 -166.201558 -3.137390 11.559482 3.113898 0.516979 -17.296738 -57.651938 6.689338 20.047809 68.710522 1.505533 4.200555 -2.093324 -0.708504 2.083688 -12.974729 1.986594 -13.036962 4.443528 10.322998 23.833210 -47.455092 -11.386042 -13.047464 63.397924 -10.581620 -14.364935 -4.943652 -6.004983 -1.996635 -22.426656 -1.208583 -0.256877 1.741865 1.641895 -0.507903 -2.080483 -0.856555 -0.609750 9.215658 -3.611038 -0.679225 -10.284433 0.564624 -1.135433 5.994340 9.340124 -10.374655 8.351579 7.485248 -0.041945 4.394816 -90.161203 -35.410379 24.708158 164.144276 -76.219194 -173.305703 -3.455634 27.100979 -4.696394 -0.000001 -0.000002 -0.000000 0.000000 0.000000 0.000000 -0.000000 0.000000 0.000000 -7.126989 3.210173 4.831568 69.179815 22.847064 -4.939191 13.708474 54.035091 17.678624 -4.870395 6.195627 0.529940 0.000000 0.000002 -0.000000 -0.000000 -0.000000 0.000000 0.000000 0.000000 -0.000000 
